<svg xmlns="http://www.w3.org/2000/svg" xmlns:xlink="http://www.w3.org/1999/xlink" width="180" height="45.951" viewBox="0 0 180 45.951">
  <defs>
    <clipPath id="clip-path">
      <rect id="Rectangle_474" data-name="Rectangle 474" width="180" height="45.951" transform="translate(0 0)" fill="none"/>
    </clipPath>
  </defs>
  <g id="Group_998" data-name="Group 998" transform="translate(0 0)">
    <path id="Path_837" data-name="Path 837" d="M60.922,10.134H64v5.22h5.893v-5.22h3.079v13.6H69.894V18.148H64v5.586H60.922Z" fill="#fff"/>
    <path id="Path_838" data-name="Path 838" d="M82.883,10.134h3.4l4.975,13.6H87.9l-1.039-3.12H82.068l-1.04,3.12H77.807l5.077-13.6Zm3.242,8.1-1.651-5.138-1.692,5.138h3.343Z" fill="#fff"/>
    <g id="Group_997" data-name="Group 997">
      <g id="Group_996" data-name="Group 996" clip-path="url(#clip-path)" style="mix-blend-mode: normal;isolation: isolate">
        <path id="Path_839" data-name="Path 839" d="M96.115,10.134h5.057a5.882,5.882,0,0,1,2.079.337,4.287,4.287,0,0,1,1.5.917,3.715,3.715,0,0,1,.9,1.356,4.6,4.6,0,0,1,.3,1.651,4.482,4.482,0,0,1-.581,2.315,4.266,4.266,0,0,1-1.641,1.58l3.018,5.443h-3.386l-2.528-5H99.111v5h-3v-13.6Zm4.894,6.138a1.861,1.861,0,0,0,1.346-3.12,1.818,1.818,0,0,0-1.346-.49h-1.9v3.609h1.9Z" fill="#fff"/>
        <path id="Path_840" data-name="Path 840" d="M112.244,10.134h2.915l3.549,6.382,3.466-6.382h2.937l.632,13.6h-3.079l-.387-8.89-2.815,5.3h-1.591l-2.977-5.241-.346,8.829h-2.937Z" fill="#fff"/>
        <path id="Path_841" data-name="Path 841" d="M138.079,24.081a7.1,7.1,0,0,1-2.8-.55,6.833,6.833,0,0,1-3.732-3.783,7.68,7.68,0,0,1,0-5.658,6.853,6.853,0,0,1,3.732-3.771,7.405,7.405,0,0,1,5.606,0,6.853,6.853,0,0,1,3.732,3.771,7.68,7.68,0,0,1,0,5.658,6.833,6.833,0,0,1-3.732,3.783,7.086,7.086,0,0,1-2.8.55m0-2.9A3.6,3.6,0,0,0,140.9,19.9a4.182,4.182,0,0,0,.765-1.366,5.279,5.279,0,0,0,0-3.3,4.1,4.1,0,0,0-.765-1.357,3.6,3.6,0,0,0-1.213-.917,3.731,3.731,0,0,0-1.611-.337,3.792,3.792,0,0,0-1.621.337,3.575,3.575,0,0,0-1.223.917,4.078,4.078,0,0,0-.765,1.357,5.279,5.279,0,0,0,0,3.3,4.192,4.192,0,0,0,.765,1.366,3.63,3.63,0,0,0,1.223.938,3.709,3.709,0,0,0,1.621.347" fill="#fff"/>
        <path id="Path_842" data-name="Path 842" d="M150.639,10.134h2.936l5.893,8.829V10.134h3.038v13.6h-2.794l-6.035-8.991v8.991h-3.039v-13.6Z" fill="#fff"/>
        <path id="Path_843" data-name="Path 843" d="M172.109,18.045l-4.771-7.911h3.486l2.956,5.137,2.875-5.137H180l-4.771,7.89v5.709h-3.12V18.044Z" fill="#fff"/>
        <path id="Path_844" data-name="Path 844" d="M61.325,28.069h2.739a3.26,3.26,0,0,1,1.09.164,2.191,2.191,0,0,1,.763.442,1.793,1.793,0,0,1,.455.654,2.124,2.124,0,0,1,.152.8,1.717,1.717,0,0,1-.14.7,1.954,1.954,0,0,1-.339.534,1.762,1.762,0,0,1-.437.352,1.175,1.175,0,0,1-.406.157,2.819,2.819,0,0,1,.539.152,1.849,1.849,0,0,1,1.025.945,2.067,2.067,0,0,1,.181.915,2.24,2.24,0,0,1-.236,1.085,1.931,1.931,0,0,1-.643.7,2.685,2.685,0,0,1-.964.376,6.154,6.154,0,0,1-1.187.109H61.324V28.069Zm2.57,3.368a2.165,2.165,0,0,0,.534-.067,1.533,1.533,0,0,0,.485-.212,1.11,1.11,0,0,0,.351-.376,1.092,1.092,0,0,0,.133-.558,1.143,1.143,0,0,0-.133-.588.984.984,0,0,0-.351-.351,1.412,1.412,0,0,0-.485-.169,3.306,3.306,0,0,0-.534-.043H62.453v2.363H63.9Zm-.036,3.708a6.23,6.23,0,0,0,.655-.036,1.964,1.964,0,0,0,.623-.17,1.157,1.157,0,0,0,.467-.394,1.507,1.507,0,0,0,.005-1.423,1.339,1.339,0,0,0-.448-.425,1.788,1.788,0,0,0-.6-.212,3.763,3.763,0,0,0-.63-.055H62.452v2.714h1.407Z" fill="#61a744"/>
        <rect id="Rectangle_472" data-name="Rectangle 472" width="1.163" height="8.083" transform="translate(72.911 28.069)" fill="#61a744"/>
        <path id="Path_845" data-name="Path 845" d="M84.145,36.358a3.962,3.962,0,0,1-1.624-.333,4.147,4.147,0,0,1-1.309-.909,4.2,4.2,0,0,1-.873-1.351,4.532,4.532,0,0,1,0-3.315,4.277,4.277,0,0,1,.867-1.345,4.052,4.052,0,0,1,1.31-.909,4.158,4.158,0,0,1,3.261,0,4.113,4.113,0,0,1,1.314.909,4.2,4.2,0,0,1,.873,1.345,4.33,4.33,0,0,1,.314,1.655,4.386,4.386,0,0,1-.314,1.66,4.18,4.18,0,0,1-.873,1.351,4.113,4.113,0,0,1-1.314.909,4.009,4.009,0,0,1-1.631.333Zm0-1.09a2.755,2.755,0,0,0,2.127-.945,3.113,3.113,0,0,0,.587-1.012,3.573,3.573,0,0,0,.206-1.218,3.642,3.642,0,0,0-.206-1.23,3.113,3.113,0,0,0-.587-1.012,2.732,2.732,0,0,0-.921-.685,2.861,2.861,0,0,0-1.206-.248,2.806,2.806,0,0,0-1.2.248,2.769,2.769,0,0,0-.916.685,3.085,3.085,0,0,0-.587,1.012,3.609,3.609,0,0,0-.206,1.23,3.54,3.54,0,0,0,.206,1.218,3.123,3.123,0,0,0,.587,1.012,2.807,2.807,0,0,0,.916.691,2.761,2.761,0,0,0,1.2.254" fill="#61a744"/>
        <path id="Path_846" data-name="Path 846" d="M94.579,34.188a5.357,5.357,0,0,0,.382.394,2.623,2.623,0,0,0,.478.357,2.57,2.57,0,0,0,.594.255,2.536,2.536,0,0,0,.716.1A1.933,1.933,0,0,0,98,34.927a1.2,1.2,0,0,0,.449-.981,1.113,1.113,0,0,0-.509-1,4.422,4.422,0,0,0-1.467-.539,4.514,4.514,0,0,1-.945-.3,2.635,2.635,0,0,1-.733-.485,2.086,2.086,0,0,1-.478-.672,2.116,2.116,0,0,1-.17-.867,2.148,2.148,0,0,1,.17-.848,1.961,1.961,0,0,1,.509-.7,2.582,2.582,0,0,1,.848-.486,3.5,3.5,0,0,1,1.177-.181,3.628,3.628,0,0,1,1.024.128,3.144,3.144,0,0,1,.733.309,2.261,2.261,0,0,1,.485.376c.121.129.213.234.278.315l-.776.715c-.048-.056-.121-.131-.217-.225a2.127,2.127,0,0,0-.37-.273,2.391,2.391,0,0,0-.522-.224,2.356,2.356,0,0,0-.684-.091,1.924,1.924,0,0,0-.667.1,1.429,1.429,0,0,0-.461.266,1,1,0,0,0-.266.37,1.089,1.089,0,0,0-.084.413.981.981,0,0,0,.127.515,1.222,1.222,0,0,0,.37.376,2.366,2.366,0,0,0,.6.278c.239.077.511.152.819.225a6.128,6.128,0,0,1,.879.285,2.71,2.71,0,0,1,.769.473,2.148,2.148,0,0,1,.539.727,2.48,2.48,0,0,1,.2,1.048,2.1,2.1,0,0,1-.218.957,2.345,2.345,0,0,1-.6.757,2.752,2.752,0,0,1-.9.5,3.54,3.54,0,0,1-1.127.176,3.8,3.8,0,0,1-1.036-.133,4.309,4.309,0,0,1-.849-.339,3.669,3.669,0,0,1-.666-.455,3.186,3.186,0,0,1-.467-.49l.824-.752Z" fill="#61a744"/>
        <path id="Path_847" data-name="Path 847" d="M112.576,34.734a2.851,2.851,0,0,1-.413.5,3.713,3.713,0,0,1-.678.527,4.224,4.224,0,0,1-.921.418,3.683,3.683,0,0,1-1.151.17,4.153,4.153,0,0,1-1.636-.315,3.75,3.75,0,0,1-1.273-.879,4,4,0,0,1-.829-1.333,4.626,4.626,0,0,1-.3-1.679,4.538,4.538,0,0,1,.3-1.66,4.23,4.23,0,0,1,.829-1.358,3.843,3.843,0,0,1,1.279-.915,3.994,3.994,0,0,1,1.654-.334,3.84,3.84,0,0,1,2.042.551,3.487,3.487,0,0,1,.655.515,3.736,3.736,0,0,1,.442.534l-.824.7a4.775,4.775,0,0,0-.345-.43,2.367,2.367,0,0,0-.479-.406,2.773,2.773,0,0,0-.643-.3,2.663,2.663,0,0,0-.836-.121,2.655,2.655,0,0,0-2.09.945,3.04,3.04,0,0,0-.563,1.018,3.89,3.89,0,0,0-.194,1.237,3.732,3.732,0,0,0,.2,1.23,3.065,3.065,0,0,0,.564,1,2.575,2.575,0,0,0,.884.666,2.72,2.72,0,0,0,1.163.242,2.83,2.83,0,0,0,.94-.139,2.672,2.672,0,0,0,.666-.334,2.547,2.547,0,0,0,.449-.394q.175-.2.3-.333l.812.679Z" fill="#61a744"/>
        <rect id="Rectangle_473" data-name="Rectangle 473" width="1.163" height="8.083" transform="translate(118.356 28.069)" fill="#61a744"/>
        <path id="Path_848" data-name="Path 848" d="M125.8,28.069h5.089V29.1h-3.926V31.45h2.957v1.042h-2.957v2.617h4.217v1.042H125.8V28.068Z" fill="#61a744"/>
        <path id="Path_849" data-name="Path 849" d="M137.067,28.069h1.175l4.412,6.314V28.069h1.138v8.083h-1.164L138.2,29.826v6.326h-1.139V28.069Z" fill="#61a744"/>
        <path id="Path_850" data-name="Path 850" d="M156.929,34.734a2.852,2.852,0,0,1-.413.5,3.713,3.713,0,0,1-.678.527,4.224,4.224,0,0,1-.921.418,3.683,3.683,0,0,1-1.151.17,4.153,4.153,0,0,1-1.636-.315,3.75,3.75,0,0,1-1.273-.879,4.005,4.005,0,0,1-.829-1.333,4.626,4.626,0,0,1-.3-1.679,4.539,4.539,0,0,1,.3-1.66,4.23,4.23,0,0,1,.829-1.358,3.843,3.843,0,0,1,1.279-.915,3.994,3.994,0,0,1,1.654-.334,3.84,3.84,0,0,1,2.042.551,3.488,3.488,0,0,1,.655.515,3.736,3.736,0,0,1,.442.534l-.824.7a4.773,4.773,0,0,0-.345-.43,2.367,2.367,0,0,0-.479-.406,2.773,2.773,0,0,0-.643-.3,2.663,2.663,0,0,0-.836-.121,2.655,2.655,0,0,0-2.09.945,3.04,3.04,0,0,0-.563,1.018,3.89,3.89,0,0,0-.194,1.237,3.733,3.733,0,0,0,.2,1.23,3.065,3.065,0,0,0,.564,1,2.575,2.575,0,0,0,.884.666,2.72,2.72,0,0,0,1.163.242,2.83,2.83,0,0,0,.94-.139,2.671,2.671,0,0,0,.666-.334,2.546,2.546,0,0,0,.449-.394q.176-.2.3-.333l.812.679Z" fill="#61a744"/>
        <path id="Path_851" data-name="Path 851" d="M162.71,28.069H167.8V29.1h-3.926V31.45h2.957v1.042h-2.957v2.617h4.217v1.042h-5.381V28.068Z" fill="#61a744"/>
        <path id="Path_852" data-name="Path 852" d="M174.332,34.188a5.359,5.359,0,0,0,.382.394,2.623,2.623,0,0,0,.478.357,2.571,2.571,0,0,0,.594.255,2.536,2.536,0,0,0,.716.1,1.932,1.932,0,0,0,1.248-.363,1.2,1.2,0,0,0,.449-.981,1.113,1.113,0,0,0-.509-1,4.422,4.422,0,0,0-1.467-.539,4.514,4.514,0,0,1-.945-.3,2.635,2.635,0,0,1-.733-.485,2.086,2.086,0,0,1-.478-.672,2.116,2.116,0,0,1-.17-.867,2.148,2.148,0,0,1,.17-.848,1.961,1.961,0,0,1,.509-.7,2.582,2.582,0,0,1,.848-.486,3.5,3.5,0,0,1,1.177-.181,3.628,3.628,0,0,1,1.024.128,3.144,3.144,0,0,1,.733.309,2.261,2.261,0,0,1,.485.376c.121.129.213.234.278.315l-.776.715c-.048-.056-.121-.131-.217-.225a2.127,2.127,0,0,0-.37-.273,2.391,2.391,0,0,0-.522-.224,2.356,2.356,0,0,0-.684-.091,1.924,1.924,0,0,0-.667.1,1.429,1.429,0,0,0-.461.266,1,1,0,0,0-.266.37,1.089,1.089,0,0,0-.084.413.981.981,0,0,0,.127.515,1.222,1.222,0,0,0,.37.376,2.366,2.366,0,0,0,.6.278c.239.077.511.152.819.225a6.129,6.129,0,0,1,.879.285,2.71,2.71,0,0,1,.769.473,2.148,2.148,0,0,1,.539.727,2.48,2.48,0,0,1,.2,1.048,2.1,2.1,0,0,1-.218.957,2.345,2.345,0,0,1-.6.757,2.753,2.753,0,0,1-.9.5,3.54,3.54,0,0,1-1.127.176,3.8,3.8,0,0,1-1.036-.133,4.309,4.309,0,0,1-.849-.339,3.669,3.669,0,0,1-.666-.455,3.187,3.187,0,0,1-.467-.49l.824-.752Z" fill="#61a744"/>
        <path id="Path_853" data-name="Path 853" d="M7.909,27.174c2.015-1.539,3.619-2.7,4.756-3.51l1.368.9c-1.117.781-2.882,2.05-5.221,3.835-.544-.206-1.08-.424-1.6-.657.222-.19.455-.381.7-.567M23.1,8.468a11.818,11.818,0,0,0-4.645-2.547,18.079,18.079,0,0,0-7.6-.567,3.293,3.293,0,0,1,.074-1.118c.316-1.25,1.509-2.038,3.045-2.417a11.742,11.742,0,0,1,5.571.137c2.471.646,4.516,2,4.516,3.834A4.2,4.2,0,0,1,23.1,8.469M9.412,40.323A4.856,4.856,0,0,0,9.5,42.107c.475,1.885,2.089,3.026,4.137,3.533A13.167,13.167,0,0,0,19.9,45.5c3.864-1.011,6.874-4.008,5.113-7.8-1.2-2.592-4.334-4.137-7.973-5.419.55-.4,1.119-.805,1.69-1.2,1.151-.81,2.3-1.624,3.326-2.472,1.262,1,2.007,1.987,2.007,3.287a5.935,5.935,0,0,1-.485,2.393,10.113,10.113,0,0,1,1.163,1.056,7.5,7.5,0,0,0,.8-3.449c0-3.018-2.317-4.487-5.777-6.681-1.032-.654-2.173-1.378-3.378-2.225,1.2-.847,2.347-1.571,3.378-2.224,3.46-2.2,5.777-3.664,5.777-6.682a7.514,7.514,0,0,0-.8-3.449,9.776,9.776,0,0,1-1.163,1.057s.291.838.309.914a6.12,6.12,0,0,1,.176,1.478c0,1.3-.745,2.284-2.007,3.288-1.021-.85-2.175-1.663-3.326-2.473-.571-.4-1.14-.8-1.69-1.2,3.64-1.281,6.77-2.827,7.973-5.419,1.762-3.8-1.248-6.795-5.113-7.8A13.179,13.179,0,0,0,13.641.313C11.594.82,9.98,1.96,9.5,3.845A4.839,4.839,0,0,0,9.412,5.63c-.011,0-.025.005-.037.009-3.351.817-5.88,2.735-5.952,5.663a7.516,7.516,0,0,0,1.234,3.965,10.486,10.486,0,0,0,.627.918C2.2,17.7.012,19.73,0,22.974c.012,3.244,2.2,5.273,5.283,6.794a10.517,10.517,0,0,0-.626.916,7.522,7.522,0,0,0-1.234,3.965c.072,2.929,2.6,4.846,5.952,5.664l.037.007M23.1,37.48a4.2,4.2,0,0,1,.959,2.679c0,1.829-2.043,3.187-4.515,3.834a11.729,11.729,0,0,1-5.571.137c-1.536-.381-2.731-1.168-3.045-2.418a3.258,3.258,0,0,1-.074-1.116,18.107,18.107,0,0,0,7.6-.568A11.819,11.819,0,0,0,23.1,37.48M1.476,22.974c.022-4.4,5.877-6.224,11.674-8.033l.866-.271q-.443-.363-.868-.745l-.5-.442c-2.057.641-4.118,1.288-5.96,2.059a9.939,9.939,0,0,1-.8-1.115,5.933,5.933,0,0,1-1-3.093c.052-2.1,2.1-3.529,4.811-4.192a15.719,15.719,0,0,1,4.117-.409,16.311,16.311,0,0,1,4.224.671,10.359,10.359,0,0,1,3.964,2.134,21.947,21.947,0,0,1-6.434,3.012,13.6,13.6,0,0,1-1.7-1.625q-.622-.732-1.1-1.4c-.078-.109-1.03-1.606-1.03-1.606a13.538,13.538,0,0,0-1.532.246,18.192,18.192,0,0,0,2.57,3.786,12.991,12.991,0,0,0,1.109,1.138c.4.36.868.751,1.4,1.171.828.645,1.723,1.273,2.616,1.9.99.7,1.983,1.4,2.872,2.107-.544.365-1.139.742-1.782,1.15-1.192.757-2.531,1.6-3.972,2.647-.844-.572-2.982-2.054-6.213-4.52-.544.206-1.08.424-1.6.657q.333.286.7.568c2.691,2.053,4.646,3.443,5.738,4.2l1.378.9C16.465,24.92,17.8,25.77,19,26.526c.643.409,1.239.785,1.782,1.15-.891.711-1.883,1.409-2.872,2.107-.894.629-1.788,1.257-2.616,1.9-.532.421-1,.811-1.4,1.171a13,13,0,0,0-1.109,1.138,18.214,18.214,0,0,0-2.57,3.785,13.543,13.543,0,0,0,1.532.248,18.281,18.281,0,0,1,2.134-3,13.527,13.527,0,0,1,1.7-1.625,21.9,21.9,0,0,1,6.434,3.014,10.406,10.406,0,0,1-3.964,2.133,16.311,16.311,0,0,1-4.224.671A15.676,15.676,0,0,1,9.7,38.807c-2.713-.663-4.759-2.094-4.811-4.192a5.93,5.93,0,0,1,1-3.092,9.746,9.746,0,0,1,.8-1.115c1.843.771,3.9,1.418,5.961,2.059l.5-.442q.424-.381.868-.745c-.288-.091-.577-.18-.866-.27C7.353,29.2,1.5,27.374,1.476,22.976" fill="#61a744"/>
        <path id="Path_854" data-name="Path 854" d="M46.284,27.174c.246.186.479.377.7.567-.524.233-1.06.451-1.6.657-2.339-1.785-4.1-3.054-5.221-3.835l1.368-.9c1.137.806,2.741,1.972,4.756,3.51M31.094,8.468a4.2,4.2,0,0,1-.96-2.679c0-1.83,2.043-3.188,4.515-3.834a11.754,11.754,0,0,1,5.571-.137c1.536.38,2.731,1.167,3.045,2.417a3.264,3.264,0,0,1,.074,1.117,18.107,18.107,0,0,0-7.6.568,11.831,11.831,0,0,0-4.645,2.547M44.783,40.323l.036-.008c3.351-.817,5.88-2.735,5.952-5.664a7.5,7.5,0,0,0-1.234-3.965,10.67,10.67,0,0,0-.626-.916c3.082-1.522,5.271-3.549,5.284-6.794-.013-3.244-2.2-5.273-5.285-6.793a10.338,10.338,0,0,0,.627-.918A7.527,7.527,0,0,0,50.771,11.3c-.072-2.93-2.6-4.847-5.952-5.664l-.036-.008a4.884,4.884,0,0,0-.093-1.785C44.215,1.958,42.6.818,40.553.31A13.2,13.2,0,0,0,34.3.453c-3.864,1.01-6.874,4.008-5.113,7.806,1.2,2.592,4.334,4.138,7.973,5.418-.55.4-1.119.805-1.69,1.206-1.15.81-2.305,1.623-3.326,2.472-1.261-1-2.007-1.988-2.007-3.287a6.073,6.073,0,0,1,.176-1.479c.018-.075.31-.914.309-.913a9.854,9.854,0,0,1-1.163-1.057,7.5,7.5,0,0,0-.8,3.449c0,3.018,2.317,4.487,5.777,6.681,1.032.654,2.173,1.379,3.378,2.225-1.2.847-2.347,1.571-3.378,2.225-3.46,2.193-5.777,3.663-5.777,6.681a7.527,7.527,0,0,0,.8,3.449,9.776,9.776,0,0,1,1.163-1.057,5.91,5.91,0,0,1-.485-2.392c0-1.3.746-2.285,2.007-3.287,1.023.848,2.176,1.662,3.326,2.472.571.4,1.14.8,1.69,1.2-3.64,1.282-6.77,2.827-7.973,5.42-1.762,3.8,1.248,6.793,5.113,7.805a13.167,13.167,0,0,0,6.256.144c2.047-.508,3.661-1.647,4.137-3.533a4.859,4.859,0,0,0,.093-1.785m-13.69-2.84a11.844,11.844,0,0,0,4.646,2.548,18.107,18.107,0,0,0,7.6.568,3.256,3.256,0,0,1-.074,1.116c-.315,1.25-1.509,2.037-3.045,2.418a11.742,11.742,0,0,1-5.571-.137c-2.471-.646-4.515-2-4.515-3.834a4.2,4.2,0,0,1,.959-2.679M52.717,22.974c-.022,4.4-5.877,6.224-11.674,8.033l-.866.271q.443.363.868.745l.5.442c2.057-.641,4.118-1.288,5.961-2.059a9.746,9.746,0,0,1,.8,1.115,5.93,5.93,0,0,1,1,3.092c-.052,2.1-2.1,3.529-4.811,4.191a15.676,15.676,0,0,1-4.117.41,16.269,16.269,0,0,1-4.224-.671,10.373,10.373,0,0,1-3.964-2.134A21.947,21.947,0,0,1,38.619,33.4a13.6,13.6,0,0,1,1.7,1.625,18.254,18.254,0,0,1,2.134,3,13.1,13.1,0,0,0,1.532-.247,18.214,18.214,0,0,0-2.57-3.785A13,13,0,0,0,40.3,32.852c-.4-.359-.868-.75-1.4-1.17-.828-.645-1.723-1.273-2.616-1.9-.99-.7-1.983-1.4-2.872-2.107.543-.365,1.139-.742,1.782-1.15,1.192-.756,2.531-1.6,3.972-2.647l1.378-.9c1.092-.756,3.047-2.147,5.738-4.2q.369-.282.7-.568c-.524-.233-1.06-.451-1.6-.657-3.231,2.466-5.369,3.949-6.213,4.52-1.441-1.042-2.779-1.891-3.972-2.647-.642-.409-1.238-.785-1.782-1.15.889-.711,1.882-1.411,2.872-2.107.894-.629,1.788-1.257,2.616-1.9.532-.42,1-.811,1.4-1.171a13.28,13.28,0,0,0,1.109-1.138,18.218,18.218,0,0,0,2.57-3.786,13.769,13.769,0,0,0-1.532-.247s-.952,1.5-1.03,1.607q-.483.664-1.1,1.4a13.6,13.6,0,0,1-1.7,1.625,21.947,21.947,0,0,1-6.434-3.013A10.392,10.392,0,0,1,36.149,7.4a16.269,16.269,0,0,1,4.224-.671,15.719,15.719,0,0,1,4.117.409C47.2,7.8,49.249,9.234,49.3,11.332a5.936,5.936,0,0,1-1,3.093,10.03,10.03,0,0,1-.8,1.115c-1.842-.771-3.9-1.418-5.96-2.059l-.5.442q-.424.381-.868.745l.866.27c5.8,1.81,11.652,3.637,11.674,8.034" fill="#fff"/>
        <path id="Path_855" data-name="Path 855" d="M26.965,21.929a7.051,7.051,0,0,1-4.551-1.978l1.1-1.087a5.551,5.551,0,0,0,3.452,1.519,4.117,4.117,0,0,0,2.757-1.065c.241-.168.514-.358.817-.556l.844,1.294c-.282.185-.533.36-.775.53a5.569,5.569,0,0,1-3.643,1.344" fill="#61a744"/>
        <path id="Path_856" data-name="Path 856" d="M26.833,23.758a7.051,7.051,0,0,1,4.551,1.978l-1.1,1.087A5.551,5.551,0,0,0,26.833,25.3a4.117,4.117,0,0,0-2.757,1.065c-.241.168-.514.358-.817.556l-.844-1.3c.282-.184.533-.359.775-.529a5.569,5.569,0,0,1,3.643-1.344" fill="#fff"/>
      </g>
    </g>
  </g>
</svg>
